<mxfile host="app.diagrams.net" modified="2024-01-13T05:57:22.932Z" agent="Mozilla/5.0 (Macintosh; Intel Mac OS X 10_15_7) AppleWebKit/537.36 (KHTML, like Gecko) Chrome/120.0.0.0 Safari/537.36 Edg/120.0.0.0" version="22.1.18" etag="Oi4YjEWhzc5ZYf1wpR2d" type="github">
  <diagram name="Page-1" id="miew0tSLHVMmqxtKEKYX">
    <mxGraphModel>
      <root>
        <mxCell id="0" />
        <mxCell id="1" parent="0" />
      </root>
    </mxGraphModel>
  </diagram>
</mxfile>
